<svg xmlns="http://www.w3.org/2000/svg" width="128px" height="128px" viewBox="0 0 128 128">
  <path fill="#004CB3" d="M128,116c0,6.6-5.4,12-12,12H12c-6.6,0-12-5.4-12-12V12C0,5.4,5.4,0,12,0h104c6.6,0,12,5.4,12,12V116z"/>
  <path fill="#FFFFFF" d="M87.604,50.574l-5.571,0.001l-5.55-27.813l5.554,0.001c3.075,0.002,5.562-2.009,5.569-5.563 c-0.002-3.556-2.488-5.563-5.564-5.564L64,11.635l-18.041,0.001c-3.076,0.001-5.562,2.008-5.564,5.564 c0.008,3.554,2.494,5.565,5.569,5.563l5.554-0.001l-5.55,27.813l-5.571-0.001c-3.072,0.005-5.563,2.011-5.563,5.564 c0.003,3.559,2.491,5.565,5.563,5.565l18.041-0.002C58.439,61.734,60.92,99.242,64,99.284c3.08-0.042,5.561-37.55,5.562-37.583 l18.041,0.002c3.072,0,5.561-2.006,5.563-5.565C93.167,52.585,90.676,50.579,87.604,50.574z"/>
  <path fill="#FFFFFF" d="M98.18,112.167H72.25c-1.338,0-6.531-6.788-8.25-6.788s-6.912,6.788-8.25,6.788H29.82 c-6.654,0-11.766,5.416-11.766,11.774V128H64h45.945v-4.059C109.945,117.583,104.833,112.167,98.18,112.167z"/>
</svg>
