<svg width="16px" height="16px" viewBox="0 0 16 16" xmlns="http://www.w3.org/2000/svg">
  <path fill="#4a4a4b" d="M10.654,9.205l2.176-2.177c0.402-0.399,0.463-0.986,0.001-1.451c-0.463-0.463-1.05-0.4-1.451,0l-0.726,0.726 L6.306,3.401l0.725-0.724c0.4-0.4,0.462-0.986,0-1.451c-0.463-0.464-1.048-0.401-1.451,0L1.229,5.577 c-0.4,0.4-0.462,0.987,0.001,1.45c0.462,0.462,1.05,0.399,1.449,0l0.725-0.723l2.898,4.348l-0.725,0.726 c-0.399,0.399-0.461,0.987,0,1.451c0.462,0.46,1.051,0.401,1.451,0l2.175-2.174c0,0,5.221,4.573,5.621,4.172 C15.225,14.425,10.658,9.209,10.654,9.205z"/>
</svg>
