<svg width="16px" height="16px" viewBox="0 0 16 16" xmlns="http://www.w3.org/2000/svg">
  <path fill="#f9f9fa" d="M10.357,9.246l2.278-1.752c0.419-0.323,0.548-0.858,0.175-1.344c-0.373-0.485-0.924-0.497-1.344-0.175 l-0.76,0.585L7.028,3.347l0.758-0.583c0.42-0.323,0.548-0.858,0.176-1.344C7.588,0.935,7.038,0.922,6.618,1.245L2.062,4.75 C1.643,5.073,1.515,5.609,1.888,6.094c0.373,0.484,0.924,0.497,1.343,0.175L3.99,5.685l2.162,4.38l-0.759,0.584 c-0.419,0.322-0.548,0.858-0.175,1.344c0.373,0.484,0.924,0.498,1.343,0.175l2.278-1.752c0,0,4.285,4.866,4.705,4.544 C13.963,14.635,10.36,9.251,10.357,9.246z"/>
</svg>
